<svg width="50" height="50" viewBox="0 0 50 50" fill="none" xmlns="http://www.w3.org/2000/svg">
<path d="M46.1538 14.0025H37.7212C37.8149 13.92 37.9111 13.84 38.0024 13.7525C38.7325 13.078 39.3209 12.2541 39.7308 11.3323C40.1407 10.4105 40.3632 9.41073 40.3846 8.3954C40.4162 7.28467 40.2291 6.17894 39.8349 5.1461C39.4407 4.11326 38.8477 3.17511 38.0922 2.38924C37.3367 1.60337 36.4348 0.986361 35.4417 0.576101C34.4486 0.165841 33.3854 -0.029017 32.3173 0.00349011C31.3406 0.0253682 30.3787 0.256685 29.4918 0.68296C28.605 1.10924 27.8123 1.72129 27.1635 2.48082C26.2656 3.56298 25.5356 4.78426 25 6.10056C24.4644 4.78426 23.7344 3.56298 22.8365 2.48082C22.1877 1.72129 21.395 1.10924 20.5082 0.68296C19.6213 0.256685 18.6594 0.0253682 17.6827 0.00349011C16.6146 -0.029017 15.5514 0.165841 14.5583 0.576101C13.5652 0.986361 12.6633 1.60337 11.9078 2.38924C11.1523 3.17511 10.5593 4.11326 10.1651 5.1461C9.77087 6.17894 9.58381 7.28467 9.61538 8.3954C9.63675 9.41073 9.85934 10.4105 10.2692 11.3323C10.6791 12.2541 11.2675 13.078 11.9976 13.7525C12.0889 13.835 12.1851 13.915 12.2788 14.0025H3.84615C2.82609 14.0025 1.84781 14.4239 1.12651 15.174C0.405218 15.9241 0 16.9414 0 18.0022V26.0017C0 27.0625 0.405218 28.0798 1.12651 28.8299C1.84781 29.58 2.82609 30.0014 3.84615 30.0014V46.0003C3.84615 47.0611 4.25137 48.0784 4.97267 48.8285C5.69396 49.5786 6.67224 50 7.69231 50H42.3077C43.3278 50 44.306 49.5786 45.0273 48.8285C45.7486 48.0784 46.1538 47.0611 46.1538 46.0003V30.0014C47.1739 30.0014 48.1522 29.58 48.8735 28.8299C49.5948 28.0798 50 27.0625 50 26.0017V18.0022C50 16.9414 49.5948 15.9241 48.8735 15.174C48.1522 14.4239 47.1739 14.0025 46.1538 14.0025ZM30.0481 5.13063C30.3526 4.78096 30.7233 4.50052 31.137 4.30694C31.5506 4.11335 31.9983 4.0108 32.4519 4.00571H32.5697C33.1014 4.00917 33.627 4.12294 34.1158 4.34037C34.6047 4.55779 35.0469 4.87449 35.4165 5.27191C35.7861 5.66933 36.0757 6.13947 36.2684 6.65479C36.461 7.1701 36.5529 7.72022 36.5385 8.27291C36.5336 8.74463 36.4349 9.21019 36.2488 9.64038C36.0626 10.0706 35.793 10.4561 35.4567 10.7727C33.1755 12.8726 29.3894 13.6125 27.0433 13.8725C27.3317 11.2252 28.125 7.37797 30.0481 5.13063ZM14.6418 5.22063C15.3869 4.4459 16.3959 4.00839 17.4495 4.00321H17.5673C18.0209 4.0083 18.4686 4.11085 18.8823 4.30444C19.2959 4.49802 19.6667 4.77846 19.9712 5.12813C21.988 7.49797 22.6995 11.4277 22.9495 13.8575C20.613 13.6075 16.8341 12.8576 14.5553 10.7602C14.219 10.4436 13.9494 10.0581 13.7632 9.62788C13.5771 9.19769 13.4784 8.73213 13.4736 8.26041C13.4587 7.69854 13.5537 7.13937 13.7528 6.61684C13.952 6.0943 14.2512 5.61929 14.6322 5.22063H14.6418ZM3.84615 18.0022H23.0769V26.0017H3.84615V18.0022ZM7.69231 30.0014H23.0769V46.0003H7.69231V30.0014ZM42.3077 46.0003H26.9231V30.0014H42.3077V46.0003ZM46.1538 26.0017H26.9231V18.0022H46.1538V26.0017Z" fill="white"/>
</svg>
